# xmcd
#
# Track frame offsets: 
#        150
#        25652
#        35554
#        69006
#        85583
#        102460
#        119262
#        139739
#        148666
#        157893
#        169670
#
# Disc length: 2544 seconds
#
# Revision: 0
# Processed by: cddbd v1.5.2PL0 Copyright (c) Steve Scherf et al.
# Submitted via: ExactAudioCopy v1.3
#
DISCID=8509ee0b
DTITLE=Little Joe Washington - Untitled
DYEAR=1900
DGENRE=
TTITLE0=Please
TTITLE1=C'mon Baby 1
TTITLE2=Please Come on Home
TTITLE3=Little Joe's Zydeco Blues
TTITLE4=Who Started the Fire?
TTITLE5=My Baby Don't Stand No
TTITLE6=Velasco and Beulah
TTITLE7=Summertime
TTITLE8=C'mon Baby 2
TTITLE9=Titties
TTITLE10=That's All Folks
EXTD=
EXTT0=
EXTT1=
EXTT2=
EXTT3=
EXTT4=
EXTT5=
EXTT6=
EXTT7=
EXTT8=
EXTT9=
EXTT10=
PLAYORDER=
